<?xml version="1.0" encoding="iso-8859-1"?>
<!-- Generator: Adobe Illustrator 19.1.0, SVG Export Plug-In . SVG Version: 6.00 Build 0)  -->
<svg xmlns="http://www.w3.org/2000/svg" xmlns:xlink="http://www.w3.org/1999/xlink" version="1.1" id="Capa_1" x="0px" y="0px" viewBox="0 0 478 478" style="enable-background:new 0 0 478 478;" xml:space="preserve" width="512px" height="512px">
<g>
	<path d="M110.688,378l-8.312,100h273.25l-8.312-100H110.688L110.688,378z M132.719,397.75c0.073-0.002,0.146,0.123,0.219,0.125   c0.167-0.008,0.333,0.125,0.5,0.125h170c2.642,0,5.062,2.358,5.062,5s-2.421,5-5.062,5h-170c-2.618,0-5.156-2.163-5.344-4.781   S130.101,397.938,132.719,397.75L132.719,397.75z M264.406,458h-135c-2.618,0-5.156-2.038-5.344-4.656s2.007-5.344,4.625-5.344   h0.219c0.167,0,0.333,0,0.5,0h135c2.642,0,5.062,2.358,5.062,5S267.048,458,264.406,458z M344.312,433h-213   c-2.618,0-5.156-2.038-5.344-4.656s2.007-5.344,4.625-5.344h0.219c0.167,0,0.333,0,0.5,0h213c2.642,0,5.062,2.358,5.062,5   S346.954,433,344.312,433z" fill="#FFFFFF"/>
	<path d="M103.562,318L101,319.806V358h275v-38.194L374.438,318H103.562z" fill="#FFFFFF"/>
	<path d="M473.562,229.934l-15-49.934h0.031c-0.593-2-1.97-3.863-3.625-5.094C453.314,173.675,451.062,173,449,173h-60v-60h-15   v64.025v3.219c-0.005,2.616-1.085,5.215-2.938,7.062l-10,9.878C359.215,199.036,356.616,200,354,200H124   c-2.616,0-5.215-0.964-7.062-2.816l-10-9.939c-1.852-1.848-2.933-4.385-2.938-7.002v-3.219V113H89v60H29   c-2.062,0-4.314,0.675-5.969,1.906S19.999,178,19.406,180h0.031l-15,49.934C4.16,230.859,4,231.778,4,232.744v30.219v24.781v5   v32.812v67.188c0,2.492,1.175,5.429,2.938,7.191C8.699,401.696,11.508,403,14,403h74.531L91,367.275v-49.531   c0-1.319,0.785-2.631,1.719-3.562l5.125-5c0.807-0.806,1.959-1.195,3.094-1.309c0.167-0.008,0.396,0.128,0.562,0.128h275   c1.304,0,2.602,0.394,3.531,1.309l4.75,4.936c0.933,0.931,2.219,2.18,1.219,3.498v49.531L389.469,403H464   c2.492,0,5.301-1.304,7.062-3.066s2.937-4.699,2.938-7.191v-67.188V323h-50v-20h50v-10.256v-5v-24.781v-30.219   C474,231.778,473.84,230.859,473.562,229.934L473.562,229.934z" fill="#FFFFFF"/>
	<path d="M124,0h230v190H124V0z" fill="#FFFFFF"/>
</g>
<g>
</g>
<g>
</g>
<g>
</g>
<g>
</g>
<g>
</g>
<g>
</g>
<g>
</g>
<g>
</g>
<g>
</g>
<g>
</g>
<g>
</g>
<g>
</g>
<g>
</g>
<g>
</g>
<g>
</g>
</svg>
