<?xml version="1.0" encoding="iso-8859-1"?>
<!-- Generator: Adobe Illustrator 19.0.0, SVG Export Plug-In . SVG Version: 6.00 Build 0)  -->
<svg xmlns="http://www.w3.org/2000/svg" xmlns:xlink="http://www.w3.org/1999/xlink" version="1.1" id="Capa_1" x="0px" y="0px" viewBox="0 0 512 512" style="enable-background:new 0 0 512 512;" xml:space="preserve" width="512px" height="512px">
<g>
	<g>
		<path d="M452,0c-33.084,0-60,26.916-60,60s26.916,60,60,60s60-26.916,60-60S485.084,0,452,0z M452,75c-8.284,0-15-6.716-15-15    s6.716-15,15-15s15,6.716,15,15S460.284,75,452,75z" fill="#FFFFFF"/>
	</g>
</g>
<g>
	<g>
		<path d="M452,150c-33.084,0-60,26.916-60,60s26.916,60,60,60s60-26.916,60-60S485.084,150,452,150z M452,225    c-8.284,0-15-6.716-15-15s6.716-15,15-15s15,6.716,15,15S460.284,225,452,225z" fill="#FFFFFF"/>
	</g>
</g>
<g>
	<g>
		<path d="M384.98,0H60C26.916,0,0,26.916,0,60s26.916,60,60,60h324.98C370.7,104.065,362,83.031,362,60S370.7,15.935,384.98,0z" fill="#FFFFFF"/>
	</g>
</g>
<g>
	<g>
		<path d="M60,150c-33.084,0-60,26.916-60,60c0,22.976,12.987,42.966,32,53.043V225c0-29.354,12.113-55.927,31.596-75H60z" fill="#FFFFFF"/>
	</g>
</g>
<g>
	<g>
		<path d="M362,210c0-10.071,1.664-19.761,4.73-28.809C346.85,185.85,332,203.72,332,225v45h52.98    C370.7,254.065,362,233.031,362,210z" fill="#FFFFFF"/>
	</g>
</g>
<g>
	<g>
		<path d="M137,150c-41.355,0-75,33.645-75,75v167h120v60c0,33.137,26.863,60,60,60c33.137,0,60-26.863,60-60V326v-17v-19v-65    c0-41.421,33.579-75,75-75H137z" fill="#FFFFFF"/>
	</g>
</g>
<g>
	<g>
		<path d="M152,452v-30H32H15c-8.284,0-15,6.716-15,15v15.213C0,485.232,26.768,512,59.787,512H174.98    C160.7,496.065,152,475.031,152,452z" fill="#FFFFFF"/>
	</g>
</g>
<g>
</g>
<g>
</g>
<g>
</g>
<g>
</g>
<g>
</g>
<g>
</g>
<g>
</g>
<g>
</g>
<g>
</g>
<g>
</g>
<g>
</g>
<g>
</g>
<g>
</g>
<g>
</g>
<g>
</g>
</svg>
