<?xml version="1.0" encoding="iso-8859-1"?>
<!-- Generator: Adobe Illustrator 17.1.0, SVG Export Plug-In . SVG Version: 6.00 Build 0)  -->
<!DOCTYPE svg PUBLIC "-//W3C//DTD SVG 1.1//EN" "http://www.w3.org/Graphics/SVG/1.1/DTD/svg11.dtd">
<svg xmlns="http://www.w3.org/2000/svg" xmlns:xlink="http://www.w3.org/1999/xlink" version="1.1" id="Capa_1" x="0px" y="0px" viewBox="0 0 442 442" style="enable-background:new 0 0 442 442;" xml:space="preserve" width="512px" height="512px">
<g>
	<path d="M396,64.549c-5.79,0-10.5,4.71-10.5,10.5s4.71,10.5,10.5,10.5s10.5-4.71,10.5-10.5S401.79,64.549,396,64.549z" fill="#FFFFFF"/>
	<path d="M396,100.049c-5.79,0-10.5,4.71-10.5,10.5s4.71,10.5,10.5,10.5s10.5-4.71,10.5-10.5S401.79,100.049,396,100.049z" fill="#FFFFFF"/>
	<path d="M392,30.049H50c-27.57,0-50,22.43-50,50v65.5c0,5.523,4.478,10,10,10h26v236.401H16c-5.522,0-10,4.477-10,10   s4.478,10,10,10h60c5.522,0,10-4.477,10-10s-4.478-10-10-10H56V155.549h49.5v169.35c0,5.523,4.478,10,10,10H221   c63.687,0,115.5-51.813,115.5-115.5v-63.85H386v236.401h-20c-5.522,0-10,4.477-10,10s4.478,10,10,10h60c5.522,0,10-4.477,10-10   s-4.478-10-10-10h-20V155.549h26c5.522,0,10-4.477,10-10v-65.5C442,52.479,419.57,30.049,392,30.049z M216.73,314.899H125.5v-212.1   h191v112.33c-17.665,16.259-40.446,25.17-64.6,25.17c-5.522,0-10,4.477-10,10C241.9,274.453,232.99,297.234,216.73,314.899z    M244.029,312.093c9.949-15.651,15.948-33.462,17.479-52.185c18.722-1.532,36.533-7.53,52.185-17.479   C305.197,276.622,278.222,303.594,244.029,312.093z M422,135.549h-85.5v-32.75h20c5.522,0,10-4.477,10-10s-4.478-10-10-10h-271   c-5.522,0-10,4.477-10,10s4.478,10,10,10h20v32.75H20v-55.5c0-16.542,13.458-30,30-30h342c16.542,0,30,13.458,30,30V135.549z" fill="#FFFFFF"/>
</g>
<g>
</g>
<g>
</g>
<g>
</g>
<g>
</g>
<g>
</g>
<g>
</g>
<g>
</g>
<g>
</g>
<g>
</g>
<g>
</g>
<g>
</g>
<g>
</g>
<g>
</g>
<g>
</g>
<g>
</g>
</svg>
